<svg width="40" height="40" viewBox="0 0 40 40" fill="none" xmlns="http://www.w3.org/2000/svg">
<path d="M20.0001 26.6667C19.6106 26.6674 19.2332 26.5318 18.9334 26.2833L8.93339 17.95C8.59302 17.6671 8.37898 17.2606 8.33835 16.8199C8.29772 16.3792 8.43382 15.9404 8.71672 15.6C8.99962 15.2597 9.40614 15.0456 9.84685 15.005C10.2876 14.9643 10.7264 15.1004 11.0667 15.3833L20.0001 22.85L28.9334 15.65C29.1039 15.5116 29.3 15.4082 29.5106 15.3458C29.7212 15.2834 29.942 15.2633 30.1604 15.2865C30.3787 15.3097 30.5904 15.3759 30.7831 15.4812C30.9758 15.5865 31.1458 15.7288 31.2834 15.9C31.436 16.0714 31.5516 16.2724 31.6229 16.4905C31.6943 16.7087 31.7198 16.9392 31.6979 17.1676C31.676 17.396 31.6071 17.6175 31.4956 17.8181C31.3842 18.0187 31.2325 18.1941 31.0501 18.3333L21.0501 26.3833C20.7416 26.5925 20.3719 26.6923 20.0001 26.6667Z" fill="white"/>
</svg>
